<svg version="1.1" viewBox="0.0 0.0 128.0 128.0" fill="none" stroke="none" stroke-linecap="square" stroke-miterlimit="10" xmlns:xlink="http://www.w3.org/1999/xlink" xmlns="http://www.w3.org/2000/svg"><clipPath id="p.0"><path d="m0 0l128.0 0l0 128.0l-128.0 0l0 -128.0z" clip-rule="nonzero"/></clipPath><g clip-path="url(#p.0)"><path fill="#000000" fill-opacity="0.0" d="m0 0l128.0 0l0 128.0l-128.0 0z" fill-rule="evenodd"/><defs><linearGradient id="p.1" gradientUnits="userSpaceOnUse" gradientTransform="matrix(13.46675616756038 0.0 0.0 13.46675616756038 0.0 0.0)" spreadMethod="pad" x1="-4.75244252028788" y1="4.757592526624241" x2="4.7737829375561756" y2="14.276234772388566"><stop offset="0.0" stop-color="#00ff00"/><stop offset="0.18" stop-color="#0fde36"/><stop offset="0.27" stop-color="#17cd51"/><stop offset="0.35" stop-color="#1ebc6c"/><stop offset="0.63" stop-color="#2d9aa2"/><stop offset="1.0" stop-color="#3c78d8"/></linearGradient></defs><path fill="url(#p.1)" d="m0 0.018372703l128.47244 0l0 128.0l-128.47244 0z" fill-rule="evenodd"/><path stroke="#ffffff" stroke-width="1.0" stroke-linejoin="round" stroke-linecap="butt" d="m0 0.018372703l128.47244 0l0 128.0l-128.47244 0z" fill-rule="evenodd"/><path fill="#ffffff" d="m55.05803 49.437744q-1.3125 -0.640625 -3.046875 -1.359375q-1.71875 -0.734375 -3.9375 -1.3125q-2.21875 -0.578125 -5.0 -0.96875q-2.765625 -0.390625 -6.15625 -0.390625q-4.09375 0 -7.296875 0.484375q-3.203125 0.46875 -5.421875 1.46875q-2.203125 1.0 -3.375 2.53125q-1.171875 1.515625 -1.171875 3.609375q0 1.765625 1.09375 3.09375q1.109375 1.3125 2.984375 2.328125q1.875 1.015625 4.390625 1.84375q2.53125 0.828125 5.359375 1.5625q2.828125 0.71875 5.828125 1.46875q3.0 0.734375 5.8125 1.609375q2.828125 0.859375 5.34375 1.921875q2.53125 1.0625 4.40625 2.484375q1.890625 1.421875 2.984375 3.25q1.09375 1.828125 1.09375 4.234375q0 2.609375 -0.984375 4.5625q-0.96875 1.9375 -2.65625 3.34375q-1.671875 1.40625 -3.921875 2.34375q-2.25 0.921875 -4.8125 1.46875q-2.546875 0.53125 -5.28125 0.75q-2.71875 0.21875 -5.359375 0.21875q-6.0625 0 -10.984375 -0.875q-4.921875 -0.875 -9.390625 -2.40625l0 -5.171875q4.609375 2.734375 9.734375 3.75q5.125 1.015625 10.78125 1.015625q4.0 0 7.375 -0.46875q3.390625 -0.46875 5.859375 -1.5q2.46875 -1.03125 3.84375 -2.6875q1.375 -1.671875 1.375 -4.078125q0 -1.921875 -1.109375 -3.375q-1.09375 -1.453125 -2.984375 -2.546875q-1.875 -1.109375 -4.390625 -1.953125q-2.515625 -0.859375 -5.328125 -1.578125q-2.8125 -0.734375 -5.8125 -1.421875q-3.0 -0.703125 -5.8125 -1.515625q-2.796875 -0.8125 -5.328125 -1.828125q-2.515625 -1.015625 -4.40625 -2.375q-1.875 -1.375 -2.96875 -3.171875q-1.09375 -1.796875 -1.09375 -4.15625q0 -2.34375 0.875 -4.15625q0.875 -1.8125 2.40625 -3.125q1.546875 -1.328125 3.609375 -2.21875q2.078125 -0.890625 4.421875 -1.421875q2.359375 -0.53125 4.890625 -0.765625q2.546875 -0.234375 5.015625 -0.234375q2.703125 0 5.125 0.234375q2.421875 0.234375 4.671875 0.625q2.25 0.390625 4.390625 0.90625q2.15625 0.5 4.359375 1.078125l0 4.875zm54.568817 0q-1.3125 -0.640625 -3.046875 -1.359375q-1.71875 -0.734375 -3.9375 -1.3125q-2.21875 -0.578125 -5.0 -0.96875q-2.765625 -0.390625 -6.15625 -0.390625q-4.09375 0 -7.296875 0.484375q-3.203125 0.46875 -5.421875 1.46875q-2.203125 1.0 -3.375 2.53125q-1.171875 1.515625 -1.171875 3.609375q0 1.765625 1.09375 3.09375q1.109375 1.3125 2.984375 2.328125q1.875 1.015625 4.390625 1.84375q2.53125 0.828125 5.359375 1.5625q2.828125 0.71875 5.828125 1.46875q3.0 0.734375 5.8125 1.609375q2.828125 0.859375 5.34375 1.921875q2.53125 1.0625 4.40625 2.484375q1.890625 1.421875 2.984375 3.25q1.09375 1.828125 1.09375 4.234375q0 2.609375 -0.984375 4.5625q-0.96875 1.9375 -2.65625 3.34375q-1.671875 1.40625 -3.921875 2.34375q-2.25 0.921875 -4.8125 1.46875q-2.546875 0.53125 -5.28125 0.75q-2.71875 0.21875 -5.359375 0.21875q-6.0625 0 -10.984375 -0.875q-4.921875 -0.875 -9.390625 -2.40625l0 -5.171875q4.609375 2.734375 9.734375 3.75q5.125 1.015625 10.78125 1.015625q4.0 0 7.375 -0.46875q3.390625 -0.46875 5.859375 -1.5q2.46875 -1.03125 3.84375 -2.6875q1.375 -1.671875 1.375 -4.078125q0 -1.921875 -1.109375 -3.375q-1.09375 -1.453125 -2.984375 -2.546875q-1.875 -1.109375 -4.390625 -1.953125q-2.515625 -0.859375 -5.328125 -1.578125q-2.8125 -0.734375 -5.8125 -1.421875q-3.0 -0.703125 -5.8125 -1.515625q-2.796875 -0.8125 -5.328125 -1.828125q-2.515625 -1.015625 -4.40625 -2.375q-1.875 -1.375 -2.96875 -3.171875q-1.09375 -1.796875 -1.09375 -4.15625q0 -2.34375 0.875 -4.15625q0.875 -1.8125 2.40625 -3.125q1.546875 -1.328125 3.609375 -2.21875q2.078125 -0.890625 4.421875 -1.421875q2.359375 -0.53125 4.890625 -0.765625q2.546875 -0.234375 5.015625 -0.234375q2.703125 0 5.125 0.234375q2.421875 0.234375 4.671875 0.625q2.25 0.390625 4.390625 0.90625q2.15625 0.5 4.359375 1.078125l0 4.875z" fill-rule="nonzero"/></g></svg>